<svg width="151" height="150" viewBox="0 0 151 150" fill="none" xmlns="http://www.w3.org/2000/svg">
<path fill-rule="evenodd" clip-rule="evenodd" d="M7 17.2468C7 14.6252 9.16685 12.5 11.8398 12.5H16.5792C25.5288 12.5 33.078 19.0362 34.1881 27.7462L35.4715 37.8165H126.955C133.859 37.8165 139.147 43.8388 138.123 50.5354L131.203 95.7781C129.9 104.298 122.438 110.601 113.654 110.601H51.9932C43.209 110.601 35.7466 104.298 34.4436 95.7781L26.4127 43.2674L26.3966 43.1521L24.5832 28.9238C24.0786 24.9647 20.6472 21.9937 16.5792 21.9937H11.8398C9.16685 21.9937 7 19.8684 7 17.2468ZM36.8189 47.3101L44.0161 94.3698C44.6084 98.2426 48.0004 101.108 51.9932 101.108H113.654C117.647 101.108 121.039 98.2426 121.631 94.3698L128.55 49.1271C128.697 48.1705 127.941 47.3101 126.955 47.3101H36.8189Z" fill="#CECECE"/>
<path d="M121.542 131.171C121.542 134.666 118.653 137.5 115.089 137.5C111.525 137.5 108.636 134.666 108.636 131.171C108.636 127.675 111.525 124.842 115.089 124.842C118.653 124.842 121.542 127.675 121.542 131.171Z" fill="#CECECE"/>
<path d="M57.0113 131.171C57.0113 134.666 54.1221 137.5 50.5582 137.5C46.9943 137.5 44.1051 134.666 44.1051 131.171C44.1051 127.675 46.9943 124.842 50.5582 124.842C54.1221 124.842 57.0113 127.675 57.0113 131.171Z" fill="#CECECE"/>
</svg>
