<svg width="20" height="21" viewBox="0 0 20 21" fill="none" xmlns="http://www.w3.org/2000/svg">
<g id="Slider">
<g id="Vector">
<path fill-rule="evenodd" clip-rule="evenodd" d="M7.43584 4.28571C6.37375 4.28571 5.51276 5.14917 5.51276 6.21429C5.51276 7.27941 6.37375 8.14286 7.43584 8.14286C8.49793 8.14286 9.35892 7.27941 9.35892 6.21429C9.35892 5.14917 8.49793 4.28571 7.43584 4.28571ZM4.23071 6.21429C4.23071 4.43908 5.6657 3 7.43584 3C9.20598 3 10.641 4.43908 10.641 6.21429C10.641 7.98949 9.20598 9.42857 7.43584 9.42857C5.6657 9.42857 4.23071 7.98949 4.23071 6.21429Z" fill="black"/>
<path fill-rule="evenodd" clip-rule="evenodd" d="M1.66663 6.21438C1.66663 5.85934 1.95362 5.57152 2.30765 5.57152H4.87175C5.22578 5.57152 5.51276 5.85925 5.51276 6.21429C5.51276 6.56933 5.22578 6.85724 4.87175 6.85724H2.30765C1.95362 6.85724 1.66663 6.56942 1.66663 6.21438Z" fill="black"/>
<path fill-rule="evenodd" clip-rule="evenodd" d="M9.35892 6.21429C9.35892 5.85925 9.64588 5.57161 9.99991 5.57161L17.6922 5.57161C18.0462 5.57161 18.3332 5.85943 18.3332 6.21447C18.3332 6.56951 18.0462 6.85733 17.6922 6.85733L9.99991 6.85733C9.64588 6.85733 9.35892 6.56933 9.35892 6.21429Z" fill="black"/>
<path fill-rule="evenodd" clip-rule="evenodd" d="M12.564 12.8571C13.6261 12.8571 14.4871 13.7205 14.4871 14.7857C14.4871 15.8508 13.6261 16.7142 12.564 16.7142C11.502 16.7142 10.641 15.8508 10.641 14.7857C10.641 13.7205 11.502 12.8571 12.564 12.8571ZM15.7692 14.7857C15.7692 13.0105 14.3342 11.5714 12.564 11.5714C10.7939 11.5714 9.35891 13.0105 9.35891 14.7857C9.35891 16.5609 10.7939 17.9999 12.564 17.9999C14.3342 17.9999 15.7692 16.5609 15.7692 14.7857Z" fill="black"/>
<path fill-rule="evenodd" clip-rule="evenodd" d="M18.3333 14.7858C18.3333 14.4307 18.0463 14.1429 17.6922 14.1429H15.1281C14.7741 14.1429 14.4871 14.4306 14.4871 14.7857C14.4871 15.1407 14.7741 15.4286 15.1281 15.4286H17.6922C18.0463 15.4286 18.3333 15.1408 18.3333 14.7858Z" fill="black"/>
<path fill-rule="evenodd" clip-rule="evenodd" d="M10.641 14.7857C10.641 14.4306 10.354 14.143 9.99997 14.143H2.30767C1.95364 14.143 1.66664 14.4308 1.66664 14.7858C1.66664 15.1409 1.95364 15.4287 2.30767 15.4287L9.99997 15.4287C10.354 15.4287 10.641 15.1407 10.641 14.7857Z" fill="black"/>
</g>
</g>
</svg>
